<?xml version="1.0" encoding="UTF-8" standalone="no"?>
<svg
   viewBox="0 0 48 48"
   width="48px"
   height="48px"
   version="1.1"
   id="svg9"
   xmlns="http://www.w3.org/2000/svg"
   xmlns:svg="http://www.w3.org/2000/svg">
  <defs
     id="defs13" />
  <g
     id="surface76811896"
     transform="translate(-31.563946,-0.92330166)">
    <path
       style="fill:#ff3a00;fill-opacity:1;fill-rule:nonzero;stroke:none"
       d="m 69.444391,32.534612 c -0.292969,1.539063 -1.539062,2.710938 -3.078125,2.929688 -2.417968,0.367187 -6.449218,0.804687 -10.992187,0.804687 -4.46875,0 -8.496094,-0.4375 -10.988281,-0.804687 -1.539063,-0.21875 -2.785157,-1.390625 -3.078126,-2.929688 -0.292968,-1.6875 -0.585937,-4.175781 -0.585937,-7.253906 0,-3.078125 0.292969,-5.566406 0.585937,-7.253906 0.292969,-1.539063 1.539063,-2.710938 3.078126,-2.929688 2.417968,-0.367187 6.449218,-0.804687 10.988281,-0.804687 4.542969,0 8.5,0.4375 10.992187,0.804687 1.539063,0.21875 2.785156,1.390625 3.078125,2.929688 0.292969,1.6875 0.65625,4.175781 0.65625,7.253906 -0.07031,3.078125 -0.363281,5.566406 -0.65625,7.253906 z m 0,0"
       id="path4" />
    <path
       style="fill:#ffffff;fill-opacity:1;fill-rule:nonzero;stroke:none"
       d="M 52.444391,30.409612 V 20.1518 l 8.792969,5.128906 z m 0,0"
       id="path6" />
  </g>
  <g
     id="layer1"
     style="display:inline">
    <a
       id="a223"
       transform="translate(-0.0162987,0.18534688)">
      <ellipse
         style="fill:#ff0000;fill-rule:evenodd;stroke-width:1.00109"
         id="path141"
         cx="24.0191"
         cy="23.9641"
         rx="23.979609"
         ry="23.874475" />
    </a>
  </g>
  <g
     id="layer2">
    <rect
       style="fill:#ffffff;fill-rule:evenodd;stroke-width:1.06334"
       id="rect252"
       width="29.397305"
       height="22.26581"
       x="9.1799154"
       y="13.177639"
       ry="4.9021301" />
  </g>
  <g
     id="layer3">
    <path
       style="fill:#ff0000;stroke:none"
       id="path794"
       d="m 29.673414,24.357403 c 0.188204,0.582251 -2.355712,2.200975 -2.880295,2.516013 -0.810014,0.486456 -4.452575,2.640583 -5.376488,2.442727 -0.598346,-0.128136 -0.728243,-3.140594 -0.738784,-3.752415 -0.01628,-0.944721 -0.06052,-5.176334 0.572781,-5.877539 0.410142,-0.454114 3.083956,0.93962 3.619079,1.236402 0.82629,0.458266 4.513099,2.535752 4.803707,3.434812 z" />
  </g>
</svg>
